<svg xmlns="http://www.w3.org/2000/svg" xmlns:xlink="http://www.w3.org/1999/xlink" width="802" zoomAndPan="magnify" viewBox="0 0 601.5 317.999988" height="424" preserveAspectRatio="xMidYMid meet" version="1.0"><defs><g/><clipPath id="cf4bdac97e"><path d="M 0 74.855469 L 171.175781 74.855469 L 171.175781 242.753906 L 0 242.753906 Z M 0 74.855469 " clip-rule="nonzero"/></clipPath><clipPath id="afcf2c8166"><path d="M 57.066406 80.554688 C 65.808594 77.113281 75.808594 74.855469 85.597656 74.855469 C 95.386719 74.855469 104.804688 76.792969 113.484375 80.230469 C 113.667969 80.339844 113.851562 80.339844 114.039062 80.445312 C 146.632812 94.203125 170.640625 130.53125 171.101562 171.324219 L 171.101562 232.261719 C 171.101562 238.054688 166.40625 242.753906 160.613281 242.753906 L 10.492188 242.753906 C 4.695312 242.753906 0 238.054688 0 232.261719 L 0 171.375 C 0.460938 130.316406 24.101562 93.988281 57.066406 80.554688 Z M 57.066406 80.554688 " clip-rule="nonzero"/></clipPath><clipPath id="812a08b419"><path d="M 47.15625 145.230469 L 123.945312 145.230469 L 123.945312 243 L 47.15625 243 Z M 47.15625 145.230469 " clip-rule="nonzero"/></clipPath><clipPath id="4542ff0c8c"><path d="M 72.765625 148.476562 C 76.691406 146.515625 81.179688 145.230469 85.570312 145.230469 C 89.964844 145.230469 94.191406 146.332031 98.085938 148.292969 C 98.171875 148.355469 98.253906 148.355469 98.335938 148.417969 C 112.964844 156.257812 123.738281 176.96875 123.945312 200.265625 L 123.945312 242.753906 L 47.15625 242.753906 L 47.15625 200.296875 C 47.363281 176.847656 57.972656 156.136719 72.765625 148.476562 Z M 72.765625 148.476562 " clip-rule="nonzero"/></clipPath></defs><g fill="#4a90e2" fill-opacity="1"><g transform="translate(190.285215, 220.005911)"><g><path d="M 72.90625 -66.796875 L 72.90625 -62.3125 C 72.78125 -57.882812 72.535156 -53.15625 72.171875 -48.125 C 71.816406 -43.09375 71.21875 -38.125 70.375 -33.21875 C 69.539062 -28.3125 68.285156 -23.613281 66.609375 -19.125 C 64.941406 -14.632812 62.671875 -10.648438 59.796875 -7.171875 C 56.921875 -3.703125 53.390625 -0.953125 49.203125 1.078125 C 45.015625 3.109375 39.925781 4.125 33.9375 4.125 C 27.46875 4.125 21.8125 2.75 16.96875 0 C 12.125 -2.75 8.082031 -6.367188 4.84375 -10.859375 C 1.613281 -15.347656 -0.773438 -20.375 -2.328125 -25.9375 C -3.890625 -31.507812 -4.671875 -37.171875 -4.671875 -42.921875 C -4.671875 -45.429688 -4.398438 -48.242188 -3.859375 -51.359375 C -3.316406 -54.472656 -2.390625 -57.375 -1.078125 -60.0625 C 0.234375 -62.757812 1.9375 -65.035156 4.03125 -66.890625 C 6.132812 -68.742188 8.800781 -69.671875 12.03125 -69.671875 C 15.5 -69.671875 18.101562 -68.710938 19.84375 -66.796875 C 21.582031 -64.878906 22.835938 -62.515625 23.609375 -59.703125 C 24.390625 -56.890625 24.898438 -53.835938 25.140625 -50.546875 C 25.378906 -47.253906 25.675781 -44.203125 26.03125 -41.390625 C 26.394531 -38.578125 27.023438 -36.210938 27.921875 -34.296875 C 28.816406 -32.378906 30.34375 -31.421875 32.5 -31.421875 C 35.007812 -31.421875 36.984375 -32.5 38.421875 -34.65625 C 39.859375 -36.8125 40.90625 -39.351562 41.5625 -42.28125 C 42.226562 -45.21875 42.648438 -48.179688 42.828125 -51.171875 C 43.003906 -54.171875 43.09375 -56.503906 43.09375 -58.171875 C 43.09375 -64.878906 42.523438 -71.4375 41.390625 -77.84375 C 40.253906 -84.25 38.847656 -90.742188 37.171875 -97.328125 C 36.328125 -100.679688 35.425781 -104.09375 34.46875 -107.5625 C 33.519531 -111.03125 33.046875 -114.5 33.046875 -117.96875 C 33.046875 -122.039062 34.117188 -125.363281 36.265625 -127.9375 C 38.421875 -130.507812 41.597656 -131.796875 45.796875 -131.796875 C 48.898438 -131.796875 51.347656 -131.164062 53.140625 -129.90625 C 54.941406 -128.65625 56.738281 -126.832031 58.53125 -124.4375 C 61.289062 -120.726562 63.597656 -116.476562 65.453125 -111.6875 C 67.304688 -106.894531 68.769531 -101.925781 69.84375 -96.78125 C 70.925781 -91.632812 71.707031 -86.457031 72.1875 -81.25 C 72.664062 -76.039062 72.90625 -71.222656 72.90625 -66.796875 Z M 72.90625 -66.796875 "/></g></g></g><g fill="#4a90e2" fill-opacity="1"><g transform="translate(268.572065, 220.005911)"><g><path d="M 46.5 5.921875 C 39.195312 5.921875 32.851562 4.09375 27.46875 0.4375 C 22.082031 -3.207031 17.625 -8.109375 14.09375 -14.265625 C 10.5625 -20.429688 7.925781 -27.582031 6.1875 -35.71875 C 4.457031 -43.863281 3.59375 -52.425781 3.59375 -61.40625 C 3.59375 -69.789062 4.519531 -78.289062 6.375 -86.90625 C 8.226562 -95.53125 11.070312 -103.3125 14.90625 -110.25 C 18.738281 -117.195312 23.585938 -122.882812 29.453125 -127.3125 C 35.316406 -131.738281 42.316406 -133.953125 50.453125 -133.953125 C 58.359375 -133.953125 64.972656 -131.828125 70.296875 -127.578125 C 75.628906 -123.328125 79.878906 -117.820312 83.046875 -111.0625 C 86.222656 -104.300781 88.5 -96.726562 89.875 -88.34375 C 91.25 -79.96875 91.9375 -71.585938 91.9375 -63.203125 C 91.9375 -53.867188 91.007812 -45.039062 89.15625 -36.71875 C 87.300781 -28.394531 84.488281 -21.0625 80.71875 -14.71875 C 76.945312 -8.375 72.21875 -3.347656 66.53125 0.359375 C 60.84375 4.066406 54.164062 5.921875 46.5 5.921875 Z M 48.65625 -94.265625 C 46.382812 -94.265625 44.441406 -93.367188 42.828125 -91.578125 C 41.210938 -89.785156 39.863281 -87.421875 38.78125 -84.484375 C 37.707031 -81.554688 36.929688 -78.265625 36.453125 -74.609375 C 35.972656 -70.953125 35.734375 -67.269531 35.734375 -63.5625 C 35.734375 -59.375 36 -55.1875 36.53125 -51 C 37.070312 -46.8125 37.878906 -43.039062 38.953125 -39.6875 C 40.035156 -36.332031 41.382812 -33.632812 43 -31.59375 C 44.625 -29.5625 46.570312 -28.546875 48.84375 -28.546875 C 51.476562 -28.546875 53.570312 -29.863281 55.125 -32.5 C 56.6875 -35.132812 57.914062 -38.304688 58.8125 -42.015625 C 59.707031 -45.722656 60.300781 -49.550781 60.59375 -53.5 C 60.894531 -57.457031 61.046875 -60.753906 61.046875 -63.390625 C 61.046875 -66.617188 60.835938 -70.03125 60.421875 -73.625 C 60.003906 -77.21875 59.316406 -80.539062 58.359375 -83.59375 C 57.398438 -86.644531 56.140625 -89.1875 54.578125 -91.21875 C 53.023438 -93.25 51.050781 -94.265625 48.65625 -94.265625 Z M 48.65625 -94.265625 "/></g></g></g><g fill="#4a90e2" fill-opacity="1"><g transform="translate(365.173727, 220.005911)"><g><path d="M 46.5 5.921875 C 39.195312 5.921875 32.851562 4.09375 27.46875 0.4375 C 22.082031 -3.207031 17.625 -8.109375 14.09375 -14.265625 C 10.5625 -20.429688 7.925781 -27.582031 6.1875 -35.71875 C 4.457031 -43.863281 3.59375 -52.425781 3.59375 -61.40625 C 3.59375 -69.789062 4.519531 -78.289062 6.375 -86.90625 C 8.226562 -95.53125 11.070312 -103.3125 14.90625 -110.25 C 18.738281 -117.195312 23.585938 -122.882812 29.453125 -127.3125 C 35.316406 -131.738281 42.316406 -133.953125 50.453125 -133.953125 C 58.359375 -133.953125 64.972656 -131.828125 70.296875 -127.578125 C 75.628906 -123.328125 79.878906 -117.820312 83.046875 -111.0625 C 86.222656 -104.300781 88.5 -96.726562 89.875 -88.34375 C 91.25 -79.96875 91.9375 -71.585938 91.9375 -63.203125 C 91.9375 -53.867188 91.007812 -45.039062 89.15625 -36.71875 C 87.300781 -28.394531 84.488281 -21.0625 80.71875 -14.71875 C 76.945312 -8.375 72.21875 -3.347656 66.53125 0.359375 C 60.84375 4.066406 54.164062 5.921875 46.5 5.921875 Z M 48.65625 -94.265625 C 46.382812 -94.265625 44.441406 -93.367188 42.828125 -91.578125 C 41.210938 -89.785156 39.863281 -87.421875 38.78125 -84.484375 C 37.707031 -81.554688 36.929688 -78.265625 36.453125 -74.609375 C 35.972656 -70.953125 35.734375 -67.269531 35.734375 -63.5625 C 35.734375 -59.375 36 -55.1875 36.53125 -51 C 37.070312 -46.8125 37.878906 -43.039062 38.953125 -39.6875 C 40.035156 -36.332031 41.382812 -33.632812 43 -31.59375 C 44.625 -29.5625 46.570312 -28.546875 48.84375 -28.546875 C 51.476562 -28.546875 53.570312 -29.863281 55.125 -32.5 C 56.6875 -35.132812 57.914062 -38.304688 58.8125 -42.015625 C 59.707031 -45.722656 60.300781 -49.550781 60.59375 -53.5 C 60.894531 -57.457031 61.046875 -60.753906 61.046875 -63.390625 C 61.046875 -66.617188 60.835938 -70.03125 60.421875 -73.625 C 60.003906 -77.21875 59.316406 -80.539062 58.359375 -83.59375 C 57.398438 -86.644531 56.140625 -89.1875 54.578125 -91.21875 C 53.023438 -93.25 51.050781 -94.265625 48.65625 -94.265625 Z M 48.65625 -94.265625 "/></g></g></g><g fill="#4a90e2" fill-opacity="1"><g transform="translate(461.77539, 220.005911)"><g><path d="M 91.046875 -24.78125 C 91.046875 -21.789062 89.816406 -18.976562 87.359375 -16.34375 C 84.898438 -13.707031 81.722656 -11.3125 77.828125 -9.15625 C 73.941406 -7 69.601562 -5.113281 64.8125 -3.5 C 60.03125 -1.882812 55.304688 -0.507812 50.640625 0.625 C 45.972656 1.757812 41.570312 2.625 37.4375 3.21875 C 33.3125 3.820312 30.050781 4.125 27.65625 4.125 C 25.375 4.125 22.945312 3.914062 20.375 3.5 C 17.800781 3.082031 15.675781 2.15625 14 0.71875 C 13.039062 0 12.203125 -1.613281 11.484375 -4.125 C 10.773438 -6.644531 10.085938 -9.640625 9.421875 -13.109375 C 8.765625 -16.578125 8.195312 -20.316406 7.71875 -24.328125 C 7.238281 -28.335938 6.847656 -32.257812 6.546875 -36.09375 C 6.253906 -39.925781 6.015625 -43.457031 5.828125 -46.6875 C 5.648438 -49.914062 5.5625 -52.429688 5.5625 -54.234375 C 5.5625 -57.222656 5.648438 -60.84375 5.828125 -65.09375 C 6.015625 -69.34375 6.285156 -73.890625 6.640625 -78.734375 C 7.003906 -83.585938 7.484375 -88.523438 8.078125 -93.546875 C 8.679688 -98.578125 9.367188 -103.335938 10.140625 -107.828125 C 10.921875 -112.316406 11.878906 -116.359375 13.015625 -119.953125 C 14.148438 -123.546875 15.378906 -126.359375 16.703125 -128.390625 C 18.972656 -131.617188 21.84375 -133.234375 25.3125 -133.234375 C 27.707031 -133.234375 29.742188 -132.425781 31.421875 -130.8125 C 33.097656 -129.195312 34.441406 -127.101562 35.453125 -124.53125 C 36.472656 -121.957031 37.253906 -119.082031 37.796875 -115.90625 C 38.335938 -112.738281 38.726562 -109.597656 38.96875 -106.484375 C 39.207031 -103.367188 39.328125 -100.492188 39.328125 -97.859375 C 39.328125 -95.222656 39.328125 -93.128906 39.328125 -91.578125 C 39.328125 -82.242188 39.113281 -72.992188 38.6875 -63.828125 C 38.269531 -54.671875 38.0625 -45.425781 38.0625 -36.09375 L 38.0625 -29.09375 C 43.445312 -30.769531 49.3125 -32.351562 55.65625 -33.84375 C 62.007812 -35.34375 68.054688 -36.09375 73.796875 -36.09375 C 75.835938 -36.09375 77.90625 -35.972656 80 -35.734375 C 82.09375 -35.492188 83.945312 -34.984375 85.5625 -34.203125 C 87.175781 -33.429688 88.492188 -32.296875 89.515625 -30.796875 C 90.535156 -29.296875 91.046875 -27.289062 91.046875 -24.78125 Z M 91.046875 -24.78125 "/></g></g></g><g clip-path="url(#cf4bdac97e)"><g clip-path="url(#afcf2c8166)"><path fill="#4a90e2" d="M 0 74.855469 L 171.175781 74.855469 L 171.175781 242.753906 L 0 242.753906 Z M 0 74.855469 " fill-opacity="1" fill-rule="nonzero"/></g></g><g clip-path="url(#812a08b419)"><g clip-path="url(#4542ff0c8c)"><path fill="#ffffff" d="M 47.15625 145.230469 L 123.945312 145.230469 L 123.945312 242.71875 L 47.15625 242.71875 Z M 47.15625 145.230469 " fill-opacity="1" fill-rule="nonzero"/></g></g></svg>