<svg xmlns="http://www.w3.org/2000/svg" xmlns:xlink="http://www.w3.org/1999/xlink" width="229" zoomAndPan="magnify" viewBox="0 0 171.75 168.749997" height="225" preserveAspectRatio="xMidYMid meet" version="1.0"><defs><clipPath id="760a858367"><path d="M 0.00390625 0 L 171 0 L 171 167.785156 L 0.00390625 167.785156 Z M 0.00390625 0 " clip-rule="nonzero"/></clipPath><clipPath id="ee156e3ecf"><path d="M 57.03125 5.691406 C 65.769531 2.253906 75.761719 0 85.542969 0 C 95.324219 0 104.738281 1.933594 113.414062 5.371094 C 113.597656 5.476562 113.78125 5.476562 113.964844 5.585938 C 146.539062 19.332031 170.53125 55.636719 170.992188 96.402344 L 170.992188 157.300781 C 170.992188 163.09375 166.300781 167.785156 160.507812 167.785156 L 10.488281 167.785156 C 4.695312 167.785156 0.00390625 163.09375 0.00390625 157.300781 L 0.00390625 96.457031 C 0.464844 55.425781 24.085938 19.117188 57.03125 5.691406 Z M 57.03125 5.691406 " clip-rule="nonzero"/></clipPath><clipPath id="ebc26e7be5"><path d="M 47.128906 70.328125 L 123.867188 70.328125 L 123.867188 168 L 47.128906 168 Z M 47.128906 70.328125 " clip-rule="nonzero"/></clipPath><clipPath id="abc2a5df74"><path d="M 72.722656 73.574219 C 76.644531 71.613281 81.128906 70.328125 85.519531 70.328125 C 89.910156 70.328125 94.132812 71.429688 98.027344 73.390625 C 98.109375 73.449219 98.191406 73.449219 98.273438 73.511719 C 112.894531 81.351562 123.660156 102.046875 123.867188 125.328125 L 123.867188 167.785156 L 47.128906 167.785156 L 47.128906 125.359375 C 47.335938 101.925781 57.9375 81.226562 72.722656 73.574219 Z M 72.722656 73.574219 " clip-rule="nonzero"/></clipPath></defs><g clip-path="url(#760a858367)"><g clip-path="url(#ee156e3ecf)"><path fill="#4a90e2" d="M 0.00390625 0 L 171.066406 0 L 171.066406 167.785156 L 0.00390625 167.785156 Z M 0.00390625 0 " fill-opacity="1" fill-rule="nonzero"/></g></g><g clip-path="url(#ebc26e7be5)"><g clip-path="url(#abc2a5df74)"><path fill="#ffffff" d="M 47.128906 70.328125 L 123.867188 70.328125 L 123.867188 167.75 L 47.128906 167.75 Z M 47.128906 70.328125 " fill-opacity="1" fill-rule="nonzero"/></g></g></svg>